<svg width="241" height="60" viewBox="0 0 241 60" fill="none" xmlns="http://www.w3.org/2000/svg">
<g clip-path="url(#clip0)">
<path d="M67.7698 41C67.4616 41 67.2304 40.8427 67.0763 40.6067C66.9222 40.3708 66.9222 40.0562 67.0763 39.8202L75.0905 20.5506C75.2446 20.1573 75.4757 20 75.861 20C76.2463 20 76.4775 20.1573 76.6316 20.5506L84.6458 39.8202C84.7999 40.0562 84.7999 40.2921 84.6458 40.6067C84.4917 40.8427 84.2605 41 83.9523 41C83.7982 41 83.644 40.9213 83.4899 40.8427C83.4129 40.764 83.2587 40.6067 83.1817 40.4494L75.3987 21.573H76.2463L68.5404 40.4494C68.4634 40.6067 68.3863 40.764 68.2322 40.8427C68.1551 41 68.001 41 67.7698 41Z" fill="#414042"/>
<path d="M90.426 41C90.1949 41 90.0408 40.9213 89.8866 40.764C89.7325 40.6067 89.6555 40.4494 89.6555 40.2135V20.7865C89.6555 20.5506 89.7325 20.3146 89.8866 20.1573C90.0408 20.0787 90.1949 20 90.426 20H95.512C96.822 20 97.9008 20.236 98.9026 20.7865C99.9044 21.3371 100.675 22.0449 101.214 23.0674C101.754 24.0112 102.062 25.1124 102.062 26.3708C102.062 27.6292 101.754 28.6517 101.214 29.5955C100.675 30.5393 99.9044 31.3258 98.9026 31.7978C97.9008 32.3483 96.7449 32.5843 95.512 32.5843H91.2737V40.1348C91.2737 40.3708 91.1966 40.5281 91.0425 40.6854C90.8884 40.9213 90.7343 41 90.426 41ZM91.2737 31.0899H95.512C96.5137 31.0899 97.3614 30.8539 98.132 30.4607C98.9026 30.0674 99.442 29.5169 99.9043 28.809C100.367 28.1011 100.521 27.3146 100.521 26.3708C100.521 25.427 100.29 24.6404 99.9043 23.9326C99.442 23.2247 98.9026 22.6742 98.132 22.2809C97.3614 21.8876 96.5137 21.6517 95.512 21.6517H91.2737V31.0899ZM101.523 41C101.291 41 101.214 40.9213 101.06 40.8427C100.983 40.764 100.906 40.6854 100.752 40.5281L95.512 31.9551L97.1302 31.5618L102.139 39.6629C102.37 40.0562 102.447 40.2921 102.293 40.5281C102.216 40.9213 101.908 41 101.523 41Z" fill="#414042"/>
<path d="M108.458 41C108.227 41 108.073 40.9213 107.918 40.764C107.764 40.6067 107.687 40.4494 107.687 40.2135V20.7865C107.687 20.5506 107.764 20.3933 107.918 20.236C108.073 20.0787 108.227 20 108.458 20C108.689 20 108.843 20.0787 108.997 20.236C109.151 20.3933 109.229 20.5506 109.229 20.7865V30.6966L119.477 20.236C119.554 20.1573 119.632 20.0787 119.786 20.0787C119.863 20 119.94 20 120.094 20C120.325 20 120.479 20.0787 120.633 20.236C120.787 20.3933 120.864 20.5506 120.864 20.7865C120.864 21.0225 120.787 21.1798 120.633 21.4157L113.081 29.1236L120.71 39.7416C120.864 39.9775 120.942 40.1348 120.864 40.3708C120.864 40.6067 120.71 40.764 120.633 40.8427C120.479 41 120.325 41 120.094 41C119.786 41 119.554 40.9213 119.4 40.6854L111.849 30.3034L109.151 33.0562V40.2135C109.151 40.4494 109.074 40.6067 108.92 40.764C108.92 40.9213 108.689 41 108.458 41Z" fill="#414042"/>
<path d="M125.411 41C125.103 41 124.872 40.8427 124.717 40.6067C124.563 40.3708 124.563 40.0562 124.717 39.8202L132.655 20.5506C132.809 20.1573 133.04 20 133.425 20C133.81 20 134.042 20.1573 134.196 20.5506L142.21 39.8202C142.364 40.0562 142.364 40.2921 142.21 40.6067C142.056 40.8427 141.825 41 141.516 41C141.362 41 141.208 40.9213 141.054 40.8427C140.977 40.764 140.823 40.6067 140.746 40.4494L132.963 21.573H133.81L126.104 40.4494C126.027 40.6067 125.95 40.764 125.796 40.8427C125.719 41 125.565 41 125.411 41Z" fill="#414042"/>
<path d="M148.066 41C147.835 41 147.681 40.9213 147.527 40.764C147.373 40.6067 147.296 40.4494 147.296 40.2135V20.7865C147.296 20.5506 147.373 20.3933 147.527 20.236C147.681 20.0787 147.835 20 148.066 20C148.298 20 148.529 20.0787 148.683 20.236L162.014 38.0899V20.7865C162.014 20.5506 162.091 20.3933 162.245 20.236C162.399 20.0787 162.554 20 162.785 20C163.016 20 163.17 20.0787 163.324 20.236C163.478 20.3933 163.555 20.5506 163.555 20.7865V40.2135C163.555 40.4494 163.478 40.6067 163.324 40.764C163.17 40.9213 163.016 41 162.785 41C162.631 41 162.554 41 162.476 40.9213C162.399 40.8427 162.322 40.8427 162.245 40.764L148.837 22.9888V40.2135C148.837 40.4494 148.76 40.6067 148.606 40.764C148.452 40.9213 148.22 41 148.066 41Z" fill="#414042"/>
<path d="M171.647 41C171.415 41 171.261 40.9214 171.107 40.7641C170.953 40.6067 170.876 40.4494 170.876 40.2135V20.7865C170.876 20.5506 170.953 20.3146 171.107 20.1573C171.261 20 171.415 19.9214 171.647 19.9214H176.424C177.965 19.9214 179.352 20.1573 180.585 20.7079C181.818 21.2584 182.897 21.9663 183.822 22.9101C184.747 23.8539 185.44 24.9551 185.98 26.2135C186.519 27.4719 186.75 28.8876 186.75 30.4607C186.75 32.0337 186.519 33.4494 185.98 34.7079C185.44 35.9663 184.747 37.0674 183.822 38.0112C182.897 38.9551 181.818 39.6629 180.585 40.2135C179.352 40.7641 177.965 41 176.424 41H171.647ZM172.417 39.5843H176.347C178.042 39.5843 179.584 39.191 180.894 38.4045C182.204 37.618 183.205 36.5169 183.976 35.1798C184.747 33.8427 185.132 32.2697 185.132 30.5393C185.132 28.809 184.747 27.236 183.976 25.8989C183.205 24.5618 182.204 23.4607 180.894 22.6742C179.584 21.8876 178.042 21.4944 176.347 21.4944H172.417V39.5843Z" fill="#414042"/>
<path d="M193.686 41C193.454 41 193.3 40.9213 193.146 40.764C192.992 40.6067 192.915 40.4494 192.915 40.2135V20.7865C192.915 20.5506 192.992 20.3933 193.146 20.236C193.3 20.0787 193.454 20 193.686 20C193.917 20 194.071 20.0787 194.225 20.236C194.379 20.3933 194.456 20.5506 194.456 20.7865V40.2135C194.456 40.4494 194.379 40.6067 194.225 40.764C194.148 40.9213 193.917 41 193.686 41Z" fill="#414042"/>
<path d="M202.547 41C202.316 41 202.162 40.9213 202.008 40.764C201.854 40.6067 201.777 40.4494 201.777 40.2135V20.7865C201.777 20.5506 201.854 20.3933 202.008 20.236C202.162 20.0787 202.316 20 202.547 20C202.779 20 203.01 20.0787 203.164 20.236L216.572 38.0899V20.7865C216.572 20.5506 216.649 20.3933 216.803 20.236C216.957 20.0787 217.112 20 217.343 20C217.574 20 217.728 20.0787 217.882 20.236C218.036 20.3933 218.113 20.5506 218.113 20.7865V40.2135C218.113 40.4494 218.036 40.6067 217.882 40.764C217.728 40.9213 217.574 41 217.343 41C217.189 41 217.112 41 217.034 40.9213C216.957 40.8427 216.88 40.8427 216.803 40.764L203.318 22.9888V40.2135C203.318 40.4494 203.241 40.6067 203.087 40.764C202.933 40.9213 202.779 41 202.547 41Z" fill="#414042"/>
<path d="M224.047 41C223.739 41 223.508 40.8427 223.353 40.6067C223.199 40.3708 223.199 40.0562 223.353 39.8202L231.368 20.5506C231.522 20.1573 231.753 20 232.138 20C232.523 20 232.755 20.1573 232.909 20.5506L240.923 39.8202C241.077 40.0562 241.077 40.2921 240.923 40.6067C240.769 40.8427 240.538 41 240.229 41C240.075 41 239.921 40.9213 239.767 40.8427C239.69 40.764 239.536 40.6067 239.459 40.4494L231.676 21.573H232.523L224.818 40.4494C224.74 40.6067 224.663 40.764 224.509 40.8427C224.355 41 224.201 41 224.047 41Z" fill="#414042"/>
</g>
<g clip-path="url(#clip1)">
<path d="M30.3261 49.2586C33.4783 40.6872 33.587 31.7902 33.3696 22.7848C33.2609 17.9023 33.587 13.1284 35.2174 8.46292C36.1957 5.64195 37.6087 3.03797 40.1087 1.30198C42.2826 -0.217003 44.5652 -0.434002 46.8478 0.650989C49.1305 1.84448 50.2174 4.01446 50.3261 6.50994C50.5435 9.22242 49.4565 11.7179 48.0435 13.8879C47.0652 15.5154 45.9783 17.1429 44.6739 18.5533C39.1305 24.9548 35.9783 32.3327 34.2392 40.4702C33.4783 43.6166 32.3913 46.6546 30.3261 49.2586Z" fill="#EE243D"/>
<path d="M31.7391 50.5606C35.3261 42.5316 35.9783 33.4177 42.5 26.9078C44.2391 25.1718 46.1957 23.6528 48.4783 22.6763C50.1087 21.9168 51.9565 21.4828 53.4783 22.8933C55 24.3038 55.2174 26.2568 54.7826 28.2098C54.2391 30.0542 53.1522 31.6817 51.7391 32.9837C49.8913 34.8282 47.7174 36.4557 45.3261 37.4322C39.5652 39.7107 35.8696 43.9421 32.7174 49.0416C32.3913 49.4756 32.0652 50.0181 31.7391 50.5606Z" fill="#EE243D"/>
<path d="M30.6522 45.2441C31.1957 37.7577 27.5 31.0308 22.3913 26.0398C20.1087 23.8698 18.2609 21.3743 17.9348 18.1194C17.7174 15.9494 18.3696 14.2134 20.1087 12.9114C21.8479 11.6094 23.587 12.1519 25.3261 12.9114C27.9348 14.2134 29.5652 16.4919 30.6522 19.0959C32.0652 22.3508 32.3913 25.8228 32.5 29.2948C32.6087 34.2857 31.6305 40.2532 30.6522 45.2441Z" fill="#EE243D"/>
<path d="M28.0435 55.009C32.5 52.8391 34.7826 48.9331 37.1739 44.9186C38.1522 43.1826 39.4565 41.6636 41.0869 40.4702C42.8261 39.2767 44.5652 38.8427 46.413 40.1447C48.1522 41.4466 48.5869 43.1826 48.0435 45.2441C47.5 47.3056 46.0869 48.7161 44.3478 49.8011C39.3478 52.9476 33.6956 54.141 28.0435 55.009Z" fill="#EE243D"/>
<path d="M26.9565 51.4286C28.2609 45.7866 25.8696 41.6637 21.8478 38.0832C20.1087 36.5642 18.6956 34.7197 18.1522 32.3327C17.7174 30.9223 17.9348 29.7288 19.1304 28.8608C20.2174 27.9928 21.5217 27.5588 22.9348 28.2098C24.8913 29.0778 25.9783 30.7053 26.9565 32.4412C29.8913 37.9747 30 45.7866 26.9565 51.4286Z" fill="#EE243D"/>
<path d="M28.587 50.5606C26.8479 52.7306 25.1087 53.7071 22.8261 53.3816C20.7609 53.0561 19.2392 52.4051 17.7174 50.9946C15.6522 54.792 10.8696 58.3725 7.39136 59.4575C13.4783 60.9765 23.587 59.0235 26.9566 55.009C27.9348 53.924 28.6957 52.7306 28.587 50.5606Z" fill="#3B7BBF"/>
<path d="M1.95648 51.8626C5.65214 48.9331 15.6521 50.5606 20.6521 44.0506C19.1304 49.5841 12.9347 56.4195 8.58692 57.9385C2.60866 60 -1.73917 54.792 1.95648 51.8626Z" fill="#3B7BBF"/>
<path fill-rule="evenodd" clip-rule="evenodd" d="M14.5652 35.5877C16.0869 30.9223 16.8478 26.1483 15.4348 21.2658C14.1304 16.8174 11.413 14.8644 7.06521 14.9729C6.52173 14.9729 4.99999 15.2984 4.45651 15.5154C4.7826 14.3219 6.08695 13.2369 6.95651 12.8029C9.7826 11.3924 4.56521 9.54793 4.34781 15.6239C4.34781 15.6239 4.23912 15.6239 4.23912 15.7324C4.13042 14.1049 4.6739 12.2604 5.43477 11.3924C7.60868 9.00544 2.60868 8.13745 4.02173 15.7324H3.91303C3.26086 14.6474 3.58694 14.1049 3.58694 12.8029C3.58694 10.1989 -1.24108e-05 11.6094 3.80434 15.8409C2.49999 16.2749 2.49999 16.2749 1.63042 17.5769C0.326075 19.4214 -0.434795 20.9403 0.326075 23.4358C0.43477 23.6528 0.760857 23.7613 0.869553 23.4358C2.39129 20.3978 4.34781 20.6148 5.43477 20.1808C7.1739 19.5299 7.60868 18.6619 8.58695 18.6619C10.1087 18.6619 12.8261 21.6998 13.3696 24.3038C14.0217 27.6673 13.0435 31.7902 9.45651 36.4557C8.26086 38.0832 7.06521 39.7107 5.76086 41.3382C3.91303 43.5082 1.19564 48.0651 0.869553 51.3201C5.43477 48.8246 10.3261 49.2586 14.8913 46.8716C14.2391 45.6781 13.6956 45.2441 13.4782 43.8337C13.0435 41.0127 13.6956 38.3002 14.5652 35.5877Z" fill="#3B7BBF"/>
</g>
<defs>
<clipPath id="clip0">
<rect width="174" height="21" fill="white" transform="translate(67 20)"/>
</clipPath>
<clipPath id="clip1">
<rect width="55" height="60" fill="white"/>
</clipPath>
</defs>
</svg>
