<svg width="55" height="60" viewBox="0 0 55 60" fill="none" xmlns="http://www.w3.org/2000/svg">
<g clip-path="url(#clip0)">
<path d="M30.326 49.2586C33.4782 40.6872 33.5869 31.7903 33.3695 22.7848C33.2608 17.9024 33.5869 13.1284 35.2174 8.46296C36.1956 5.64198 37.6087 3.038 40.1087 1.30201C42.2826 -0.216973 44.5652 -0.433971 46.8478 0.65102C49.1304 1.84451 50.2173 4.01449 50.326 6.50997C50.5434 9.22245 49.4565 11.7179 48.0434 13.8879C47.0652 15.5154 45.9782 17.1429 44.6739 18.5534C39.1304 24.9548 35.9782 32.3328 34.2391 40.4702C33.4782 43.6167 32.3913 46.6546 30.326 49.2586Z" fill="#414042"/>
<path d="M31.7391 50.5605C35.3261 42.5316 35.9783 33.4177 42.5 26.9077C44.2391 25.1717 46.1957 23.6527 48.4783 22.6762C50.1087 21.9168 51.9565 21.4828 53.4783 22.8932C55 24.3037 55.2174 26.2567 54.7826 28.2097C54.2391 30.0542 53.1522 31.6817 51.7391 32.9837C49.8913 34.8281 47.7174 36.4556 45.3261 37.4321C39.5652 39.7106 35.8696 43.9421 32.7174 49.0415C32.3913 49.4755 32.0652 50.018 31.7391 50.5605Z" fill="#414042"/>
<path d="M30.6521 45.2442C31.1956 37.7578 27.5 31.0308 22.3913 26.0399C20.1087 23.8699 18.2608 21.3744 17.9348 18.1195C17.7174 15.9495 18.3695 14.2135 20.1087 12.9115C21.8478 11.6095 23.5869 12.152 25.3261 12.9115C27.9348 14.2135 29.5652 16.492 30.6521 19.0959C32.0652 22.3509 32.3913 25.8229 32.5 29.2949C32.6087 34.2858 31.6304 40.2533 30.6521 45.2442Z" fill="#414042"/>
<path d="M28.0435 55.009C32.5 52.8391 34.7826 48.9331 37.1739 44.9186C38.1522 43.1826 39.4565 41.6636 41.0869 40.4702C42.8261 39.2767 44.5652 38.8427 46.413 40.1447C48.1522 41.4466 48.5869 43.1826 48.0435 45.2441C47.5 47.3056 46.0869 48.7161 44.3478 49.8011C39.3478 52.9476 33.6956 54.141 28.0435 55.009Z" fill="#414042"/>
<path d="M26.9565 51.4285C28.2609 45.7865 25.8696 41.6636 21.8478 38.0831C20.1087 36.5641 18.6956 34.7196 18.1522 32.3326C17.7174 30.9222 17.9348 29.7287 19.1304 28.8607C20.2174 27.9927 21.5217 27.5587 22.9348 28.2097C24.8913 29.0777 25.9783 30.7052 26.9565 32.4411C29.8913 37.9746 30 45.7865 26.9565 51.4285Z" fill="#414042"/>
<path d="M28.587 50.5605C26.8479 52.7305 25.1087 53.707 22.8261 53.3815C20.7609 53.056 19.2392 52.405 17.7174 50.9945C15.6522 54.792 10.8696 58.3725 7.39136 59.4575C13.4783 60.9765 23.587 59.0235 26.9566 55.009C27.9348 53.924 28.6957 52.7305 28.587 50.5605Z" fill="#414042"/>
<path d="M1.95648 51.8625C5.65214 48.933 15.6521 50.5605 20.6521 44.0505C19.1304 49.584 12.9347 56.4194 8.58692 57.9384C2.60866 59.9999 -1.73917 54.7919 1.95648 51.8625Z" fill="#414042"/>
<path fill-rule="evenodd" clip-rule="evenodd" d="M14.5651 35.5877C16.0869 30.9223 16.8478 26.1483 15.4347 21.2658C14.1304 16.8174 11.413 14.8644 7.06515 14.9729C6.52167 14.9729 4.99993 15.2984 4.45645 15.5154C4.78254 14.3219 6.08688 13.2369 6.95645 12.8029C9.78254 11.3924 4.56514 9.54793 4.34775 15.6239C4.34775 15.6239 4.23906 15.6239 4.23906 15.7324C4.13036 14.1049 4.67384 12.2604 5.43471 11.3924C7.60862 9.00544 2.60862 8.13745 4.02167 15.7324H3.91297C3.2608 14.6474 3.58688 14.1049 3.58688 12.8029C3.58688 10.1989 -7.3446e-05 11.6094 3.80427 15.8409C2.49993 16.2749 2.49993 16.2749 1.63036 17.5769C0.326014 19.4214 -0.434856 20.9403 0.326014 23.4358C0.434709 23.6528 0.760796 23.7613 0.869492 23.4358C2.39123 20.3978 4.34775 20.6148 5.43471 20.1808C7.17384 19.5299 7.60862 18.6619 8.58688 18.6619C10.1086 18.6619 12.826 21.6998 13.3695 24.3038C14.0217 27.6673 13.0434 31.7902 9.45645 36.4557C8.2608 38.0832 7.06515 39.7107 5.7608 41.3382C3.91297 43.5082 1.19558 48.0651 0.869492 51.3201C5.43471 48.8246 10.326 49.2586 14.8912 46.8716C14.2391 45.6781 13.6956 45.2441 13.4782 43.8337C13.0434 41.0127 13.6956 38.3002 14.5651 35.5877Z" fill="#414042"/>
</g>
<defs>
<clipPath id="clip0">
<rect width="55" height="60" fill="white"/>
</clipPath>
</defs>
</svg>
